<svg xmlns="http://www.w3.org/2000/svg" viewBox="0 0 146.45 92.66"><defs><style>.cls-1{fill:#174e9f;}.cls-2{fill:#253855;}</style></defs><g id="Layer_2" data-name="Layer 2"><g id="Logo_Assets" data-name="Logo Assets"><g id="Logo2"><g id="Mulholland-Logo2-Color"><g id="Mulholland-Kayak-Color"><g id="wave"><path class="cls-1" d="M145.41,29.75a39.91,39.91,0,0,0-1.9-6.08c-.41-1-.89-2-1.39-3l-.82-1.46-1-1.58A41,41,0,0,0,120,2.11,39.2,39.2,0,0,0,107.32,0c-1,0-2.08.06-3.09.13l-2.67.33c-.21,0-.42.06-.64.1L98.73,1c-.24.05-.47.11-.71.18l-2.29.67-.61.2c-.66.25-1.22.5-1.83.74L93,2.9l-.31.1-.07,0-.15.07-.6.27c-.4.18-.79.38-1.17.57a30.76,30.76,0,0,0-4.2,2.59,27.64,27.64,0,0,0-6.12,6.1,18.25,18.25,0,0,0-3.74,12.27,14.94,14.94,0,0,0,2.83,7.4,12.9,12.9,0,0,0,1.34,1.6l.49.52-.23-.64a18.6,18.6,0,0,1-.53-1.86,13.39,13.39,0,0,1,.11-6.8,16.68,16.68,0,0,1,5.8-8.35A24.78,24.78,0,0,1,92,13.44a31.53,31.53,0,0,1,3.31-1.17c.28-.08.57-.17.86-.23l.44-.11.11,0,.06,0c.06,0-.41.14-.18.07l.28-.06,1.74-.34a7.84,7.84,0,0,1,1-.11c.38,0,.75,0,1.12-.08l1.55,0h.64l1.23.06c.22,0,.44,0,.65.06l1.56.2a24.71,24.71,0,0,1,7.2,2.39,26.47,26.47,0,0,1,10.94,11.13l.3.68.35.86c.22.59.41,1.2.61,1.82a25.83,25.83,0,0,1,.85,3.91,32.8,32.8,0,0,1,0,8.34A36.25,36.25,0,0,1,120,57c-3.48,5-7,8-12.28,12.05-1.54,1.18.62-.1,3.78,2.28a6.21,6.21,0,0,1,1.15,1.31,2.79,2.79,0,0,1-.61,3.59A11.18,11.18,0,0,1,109,78.37c-1.3.57-6.27,2.63-7.24,3.1-.44.21,3.44.4,5.22.4h6.46a28.29,28.29,0,0,0,4-.47c7.77-.88,15-8,20.14-15.21a48,48,0,0,0,8.82-23.93A41.13,41.13,0,0,0,145.41,29.75Z"/><path class="cls-1" d="M118,33a24,24,0,0,0-6-13,24.87,24.87,0,0,0-12.44-7.09,20.49,20.49,0,0,0-13.33,1.51,16,16,0,0,0-7.37,7,11.85,11.85,0,0,0-1.24,7.13A11.24,11.24,0,0,0,79.23,33a15.35,15.35,0,0,0,1,1.31l0,.05a.62.62,0,0,0,.72.14.46.46,0,0,0,.23-.67,12.12,12.12,0,0,1-.72-1.37,9.8,9.8,0,0,1-.82-4,10.76,10.76,0,0,1,1.86-5.87,13.31,13.31,0,0,1,6.67-5.06A15.32,15.32,0,0,1,98,17.38a18.67,18.67,0,0,1,8.74,6.22,16.66,16.66,0,0,1,2.35,4.63,21.75,21.75,0,0,1,1,5.33,21.76,21.76,0,0,1-2.4,10.74,28.55,28.55,0,0,1-7.54,8.88c-3.18,2.47-5.43,4.19-9.9,7.12-5.09,3.33-9.15,6.13-10.72,6.85-4,4.24,5.6,1.56,9.31,1.29a55.42,55.42,0,0,1,5.82.55L96,68.35a48.87,48.87,0,0,0,11.92-8.84,39.72,39.72,0,0,0,8.28-12.35A28,28,0,0,0,118,33Z"/></g><g id="kayak"><path class="cls-2" d="M121.54,79.81a31.15,31.15,0,0,1-6.23.88c-2.42.12-5.16.26-8.13.44-1.45.1-3,.19-4.51.27,6.51-2,10.25-4.46,10.88-7.27.4-1.77-.56-3.44-2.51-4.36a12.81,12.81,0,0,0-2.67-.84,3.5,3.5,0,0,0-3.48-2.56h0a3.29,3.29,0,0,0-3.13,1.74q-3.51-.23-8.1-.23c-6.51,0-12.37.35-12.43.35a1.19,1.19,0,0,0-1.16.85,1.74,1.74,0,0,1-.31.38v-.24l.09-.37c.61-2.58-.31-7.15-1.08-10.06l-.06-.22c0-.21-.08-.43-.13-.65-1.42-7.05-5-8.77-6.77-9.18q-.06-.26-.12-.72a7,7,0,0,1,.07-1c.2-1.68.55-4.79-2.4-6.81a4.59,4.59,0,0,0-2.57-.73c-2.49,0-5.37,1.63-5.66,4.26-.24,2.18-.57,5.16,2.85,7.26a1.24,1.24,0,0,1,.77,1.16.63.63,0,0,1,0,.2,26,26,0,0,0-3.23,1.75l-.47.34c-1,.72-1.14.85-3.33,1a17.13,17.13,0,0,0-3.17.58,9.1,9.1,0,0,1-2.36.39,7.31,7.31,0,0,1-1-.08,1,1,0,0,1-.23-.18,2.76,2.76,0,0,0-1-.57,7.12,7.12,0,0,0-1.82-.31c-1.16,0-1.36.75-1.39,1v0l-1.63-.64c-3.65-1.44-1.55-5.23-14.72-10.4-4-1.58-5.38-1.6-7.14,2.88s-.75,5.39,3.28,7c13.16,5.17,14.2,1,17.86,2.39l3.91,1.54a1.23,1.23,0,0,0,.61.9,8.4,8.4,0,0,0,3.87.86l11.81,4.63c0,.3,0,.58.07.86A9.58,9.58,0,0,1,64.44,69a6.76,6.76,0,0,0-.19,1.49c-2.42-.52-5-1.17-7.47-1.81-5.66-1.46-11-2.83-15.12-2.83a64.55,64.55,0,0,0-10.63,1,63.65,63.65,0,0,1-10.56,1,34.67,34.67,0,0,1-5.21-.39A3.49,3.49,0,0,0,12,64.87,3.22,3.22,0,0,0,8.7,66.52H8.44a9.36,9.36,0,0,0-4.08.92,1.33,1.33,0,0,0-.72.88c-.08.3-.69,3,1.86,6.32,2.92,3.76,9.92,8,26.24,10.15l-2.22.09-9.62.4-8.14.37c-2.43.1-4.54.22-6.28.3s-3.11.17-4.05.2L0,86.23s.5.07,1.43.17,2.29.25,4,.4,3.85.33,6.28.49,5.16.34,8.15.46l4.67.2,5,.14c1.71.06,3.47.07,5.27.09s3.64,0,5.51,0l5.69,0c1.88,0,3.78,0,5.69-.09l-12.33.77-11.48.78c-1.39.09-2.48.19-3.22.24L23.54,90l1.14.11c.74.06,1.83.16,3.22.25s3.08.2,5,.28,4.13.19,6.51.23l3.72.08,4,0c2.74,0,5.62,0,8.6-.08l4.54-.13,1.54,0-5.25.42-5.09.42-3.93.34L45,92.09l-.9.09s1.25.11,3.44.22c1.09,0,2.42.12,3.94.16s3.25.09,5.12.09h2.93l3.13,0c2.14,0,4.41-.1,6.75-.17L73,92.31c1.2-.06,2.42-.11,3.65-.2,2.46-.15,5-.32,7.44-.53l3.73-.33c1.24-.12,2.48-.26,3.7-.39l3.64-.4L98.68,90l3.42-.46,3.27-.52,3.09-.5c1-.17,2-.37,2.88-.54,1.84-.34,3.53-.68,5-1s3.54-.72,4.61-.94c3.5-.72,4.57-1.81,4.57-1.81a6.61,6.61,0,0,0,2.69-4.56,14,14,0,0,1-3.51,3.59,25.19,25.19,0,0,1-4.13,1.36c-.91.23-2.33.55-5,1-1.53.28-2.63.42-4.54.69s-3.83.46-6,.67l-3.27.32-2.74.24,2.42-.34,3.94-.58c1.27-.19,2.5-.42,3.67-.62,2.36-.4,4.51-.8,6.41-1.16s4.5-1,4.87-1l.09,0a23,23,0,0,0,3.11-1.09c2.54-1.25,4-4.8,4-4.8A35.15,35.15,0,0,1,123,81a9.92,9.92,0,0,1-3.59,1.29c-1.11.23-2,.32-3.61.55-1.27.18-4.59.73-7.57,1.16-1.18.16-4.26.45-7,.66L97.06,85l-.46,0,1.25-.15,5-.62c.8-.1,1.59-.21,2.36-.33l2.26-.34c3-.45,5.67-.89,8.07-1.28a32,32,0,0,0,6.78-1.71,20,20,0,0,0,2.44-1.37,15.42,15.42,0,0,0,3.4-2.83,25.71,25.71,0,0,1-2.39,1.51A22.86,22.86,0,0,1,121.54,79.81Zm-10.22-4.32a6.56,6.56,0,0,1-.66.67,15,15,0,0,1-3,1.94,35.75,35.75,0,0,1-5.15,2.05c-1.82.58-3.88,1.12-6.14,1.6l-2.1.12,1.23-.23c2.58-.5,4.92-1,7-1.66a36,36,0,0,0,5.16-2,15.06,15.06,0,0,0,3-1.89,6.1,6.1,0,0,0,.67-.65l.22-.24Zm-6.44-8.12h0a2.54,2.54,0,0,1,2.32,1.34c-1.25-.22-2.7-.39-4.36-.52A2.69,2.69,0,0,1,104.88,67.37Zm-2.75,2.09a7.22,7.22,0,0,0,2.85.71,9.31,9.31,0,0,0,2.44-.08,13.18,13.18,0,0,1,3.06.88,3.58,3.58,0,0,1,1.42,1.13c-2.74.93-14.65,4.51-37.79,5.82,1.74-.22,3.42-.49,5-.79a53.32,53.32,0,0,0,6.06-1.47,32,32,0,0,0,4.92-1.91,15,15,0,0,0,3.42-2.22,6.56,6.56,0,0,0,1.66-2,1.45,1.45,0,0,0,.13-.29C97.63,69.24,100,69.31,102.13,69.46ZM80.21,70.57c.25-.1.47-.17.63-.22l.24-.06-.22.12c-.14.07-.33.2-.57.33l-.37.23c-.14.08-.27.18-.41.27s-.28.19-.43.29-.3.2-.44.31c-.59.42-1.17.86-1.6,1.18l-.74.55.16-.19c.11-.12.26-.3.45-.5a8.68,8.68,0,0,1,.68-.64c.26-.23.56-.46.85-.67a9.33,9.33,0,0,1,.92-.58A6.64,6.64,0,0,1,80.21,70.57ZM65.65,66.22A47.77,47.77,0,0,0,65,60.85c-.07-.35-.12-.68-.17-1a44.45,44.45,0,0,0,9.24-1.47,21.53,21.53,0,0,0,.64,5.46l0,0a14.22,14.22,0,0,1-1.07,1.28,21.75,21.75,0,0,1-5,3.83,23.07,23.07,0,0,1-2.59,1.29,23.2,23.2,0,0,0,2.71-1.05,22.08,22.08,0,0,0,5.45-3.45c.27-.24.53-.49.79-.76a7.69,7.69,0,0,1,.13,3.22c-.23,1.58-2,2.4-3.66,2.82-1.94,0-3.92-.11-5.48-.25l-.78-.15C65.14,69.71,65.84,68.19,65.65,66.22ZM48.58,56.89c-1-.29-1.07-.56-.45-.56a6.25,6.25,0,0,1,1.54.27c.5.15.77.71,1.32.78a8.14,8.14,0,0,0,1.15.08c1.94,0,3-.76,5.61-1,2.79-.22,2.82-.48,4.3-1.55a40.27,40.27,0,0,1,4.75-2.43c1.53-.67,3.1-2.4,4.72-2.4a2.23,2.23,0,0,1,1.23.38,4.09,4.09,0,0,0-3.52,1s1.92.86,2.2,2a1.54,1.54,0,0,0-.17-.19,4.78,4.78,0,0,0-.39-.39l-.21-.17-.22-.14-.21-.14L70,52.4l-.21-.1-.19-.07-.35-.11-.27,0-.23,0,.21.1.25.11a1.92,1.92,0,0,1,.29.18l.17.1.16.14.17.14.15.16.16.17.14.19a3.54,3.54,0,0,1,.26.41,3.36,3.36,0,0,1,.2.43c.06.15.12.29.16.43s0,0,0,.07a3.39,3.39,0,0,1-1,.75,29.57,29.57,0,0,1-6.79,2.64l-.23,0a3.92,3.92,0,0,1-.51.07l-.53.05h-.53c-.18,0-.34,0-.51,0s-.32-.07-.47-.1-.28-.1-.41-.14a3.34,3.34,0,0,1-.33-.17,1.24,1.24,0,0,1-.24-.17l-.2-.16.15.21a1.24,1.24,0,0,0,.19.24c.09.08.18.18.29.27s.25.18.4.27.25.14.39.2c-1.43.28-3,.49-4.54.64h0l.29-.06.72-.18c.45-.11.81-.23,1.07-.31l.41-.11-.42.07c-.26,0-.63.14-1.09.2l-.73.11-.82.1c-.28,0-.58.05-.87.08s-.61,0-.91.05H53c-.3,0-.59,0-.87,0l-.81-.07-.71-.1c-.22,0-.42-.08-.59-.11l-.12,0a1.89,1.89,0,0,1-.13-.33,1,1,0,0,1,0-.24.87.87,0,0,1,0-.23,1.41,1.41,0,0,1,.06-.22.57.57,0,0,1,.1-.19,1.14,1.14,0,0,1,.09-.16l.09-.11.09-.1-.11.07-.13.08a.53.53,0,0,0-.15.12.91.91,0,0,0-.17.17,1.34,1.34,0,0,0-.16.23,1.18,1.18,0,0,0-.12.28,0,0,0,0,1,0,0C49.37,57.75,49.38,57.12,48.58,56.89ZM64.31,41.11c2.34-.89,3.54.22,4.07,3.19l.33.12a4.73,4.73,0,0,1,.5.2l.41.19.3.18.26.15-.29-.09-.32-.12-.43-.13-.5-.15-.57-.13-.34-.07-.26,0L67,44.34h-.09l-.5,0c-.34,0-.68,0-1,0s-.67,0-1,.06a8.3,8.3,0,0,0-.91.13,5.92,5.92,0,0,0-.8.17c-.24.07-.47.11-.66.18l0,0c0-.31.06-.63.09-.94A3.74,3.74,0,0,1,64.31,41.11ZM62,45l.1,0c.19,0,.42,0,.67-.07a4.92,4.92,0,0,1,.79,0c.28,0,.57,0,.88,0s.61,0,.93.1a7.78,7.78,0,0,1,.94.18l.46.11.46.15c.3.08.58.21.86.31l.77.36c.24.13.47.24.67.37l.13.07c-.33,3.07-3.06,4.48-4.08,4.9a2.26,2.26,0,0,0-1.1-1.2C62.12,48.72,61.88,46.89,62,45Zm1.08,15.25.8-.17c0,.32.11.65.18,1,.14.74.25,1.48.32,2.2l-6-2.36A21.51,21.51,0,0,0,63.09,60.21ZM26.42,46.61l1.54.51,2.16.77c.39.15.8.29,1.2.45l1.25.48,1.24.5,1.19.49c.78.32,1.5.63,2.11.9l1.47.67.56.27-.59-.18c-.37-.13-.91-.29-1.54-.51l-2.16-.77-1.21-.45-1.24-.48-1.24-.5L30,48.27l-2.1-.9c-.62-.27-1.12-.51-1.48-.68l-.55-.26Zm10.25,9.64-1.54-.51c-.63-.22-1.37-.48-2.15-.77l-1.21-.45L30.52,54l-1.24-.5-1.19-.49L26,52.15c-.61-.27-1.12-.52-1.47-.68L24,51.21l.59.18c.37.12.91.29,1.54.51s1.37.48,2.16.77l1.21.45,1.24.48,1.24.5,1.2.49c.77.32,1.49.63,2.1.9s1.12.51,1.48.67l.55.27Zm5.5-1C40.44,54.6,39,54,38,53.57l-1.58-.67,1.61.59c1,.38,2.49.9,4.24,1.57l4.24,1.6h0l1.65.5a.59.59,0,0,1,.09.63L46.43,57h0Zm13.89,5.55.83,0h.47l4.5,1.79,2.58,1c0,.13,0,.26,0,.39-.89-.33-1.82-.69-2.77-1.06ZM20.47,69.23c8.23,0,13.21-2.08,21.19-2.08S63,72.59,71.36,72.79c-.49,0-1,.09-1.54.12s-.82,0-1.23,0-.85,0-1.28,0a45.16,45.16,0,0,1-5.49-.64A70.19,70.19,0,0,1,51.7,69.84l-1.82-.63-1.41-.49-1.24-.45.26.23a8.66,8.66,0,0,0,.81.56c.36.22.81.46,1.34.72s1.15.5,1.82.75a71.21,71.21,0,0,0,10.16,2.84,49,49,0,0,0,5.61.78c.46,0,.92,0,1.35.06s.87,0,1.29,0c.84,0,1.63-.09,2.36-.19a12.11,12.11,0,0,0,3.52-.91,5.83,5.83,0,0,0,.56-.28l.21-.13-.57.53a.51.51,0,0,0,0,.71.52.52,0,0,0,.71,0s.21-.21.54-.51a.89.89,0,0,0,.86.15c1-.36,2.6-1,2.77-1.87a1.2,1.2,0,0,0-.1-.72c.18-.08.35-.16.52-.22a.49.49,0,0,0,.3-.64.52.52,0,0,0-.37-.32,1.37,1.37,0,0,0,.12-.24s5.8-.35,12.35-.35h1.62c0,.07-.09.16-.15.25a7.1,7.1,0,0,1-1.79,1.81,16.94,16.94,0,0,1-3.47,1.89,36.68,36.68,0,0,1-4.92,1.57c-1.83.45-3.85.84-6,1.16-.54.09-1.09.15-1.64.22s-1.12.15-1.69.2l-1.72.19-1.76.15c-2.37.2-4.82.33-7.32.43l-1.88.06-1.89,0c-1.27,0-2.54,0-3.81,0s-2.54,0-3.81,0-2.52,0-3.77-.07c-2.5-.1-4.95-.17-7.32-.36-1.19-.07-2.35-.2-3.49-.29s-2.25-.24-3.33-.4c-2.15-.3-4.18-.65-6-1.09a31.3,31.3,0,0,1-4.91-1.55,14.2,14.2,0,0,1-3.41-2,7.71,7.71,0,0,1-1-1,4.56,4.56,0,0,1-.55-.93,2.45,2.45,0,0,1-.12-.31ZM12,65.87a2.54,2.54,0,0,1,2.18,1.46l-1.51-.27c-1-.19-1.94-.36-2.84-.46A2.61,2.61,0,0,1,12,65.87Zm-3.52,2,.53,0a7.33,7.33,0,0,0,2.79.88,7.46,7.46,0,0,0,2.82,0,36.39,36.39,0,0,0,4.84.46,2.37,2.37,0,0,0,.08.34,4.72,4.72,0,0,0,.48,1,7,7,0,0,0,1,1.17A13.72,13.72,0,0,0,24.32,74a29.54,29.54,0,0,0,4.93,1.9,54.36,54.36,0,0,0,5.91,1.36C12.55,74.75,4.93,68.65,4.93,68.65A7.81,7.81,0,0,1,8.44,67.85ZM36.58,84.2A91.69,91.69,0,0,1,18.9,81c-1.26-.37-2.45-.8-3.57-1.23s-2.15-.92-3.1-1.43a19.63,19.63,0,0,1-4.52-3.17,12.61,12.61,0,0,1-1.35-1.55,10.08,10.08,0,0,1-.78-1.3c-.09-.18-.16-.35-.22-.5a3,3,0,0,1-.14-.37l-.1-.3.11.3c0,.1.08.22.14.37s.14.31.23.49a8.79,8.79,0,0,0,.8,1.28A13.61,13.61,0,0,0,7.76,75.1a19.49,19.49,0,0,0,4.56,3.07A39.77,39.77,0,0,0,19,80.73a73.77,73.77,0,0,0,8.25,1.85c3,.51,6.12.89,9.38,1.19,2.39.22,4.84.38,7.33.5l-3.7.17-.56,0C38.65,84.38,37.61,84.3,36.58,84.2Z"/><path class="cls-2" d="M70.53,66.45l-.62.55-.63.51-.59.46-.55.39c-.34.26-.63.45-.83.59s-.32.23-.32.23l.35-.16a10.22,10.22,0,0,0,.92-.47c.18-.1.39-.21.59-.34l.64-.43.65-.49.65-.55.61-.6c.19-.2.38-.4.55-.61s.33-.4.47-.6.27-.39.39-.57a6.64,6.64,0,0,0,.49-.91c.1-.22.15-.36.15-.36l-.21.33c-.14.2-.35.48-.61.81-.14.16-.27.34-.43.52l-.51.55c-.17.2-.37.38-.56.58Z"/><path class="cls-2" d="M66.22,67.36c0,.25,0,.48,0,.7,0,.42-.09.78-.14,1s-.09.4-.09.4a2.91,2.91,0,0,0,.18-.37,6.81,6.81,0,0,0,.46-1.73c0-.25.06-.52.07-.8s0-.57,0-.86,0-.59-.08-.88-.09-.58-.14-.87-.1-.56-.14-.83c-.1-.53-.21-1-.3-1.46-.19-.86-.36-1.42-.36-1.42s0,.59.07,1.46c0,.44.09,1,.15,1.49,0,.27.06.55.11.84l.12.85c0,.29.07.57.09.85s0,.56,0,.83S66.23,67.12,66.22,67.36Z"/></g></g></g></g></g></g></svg>