<svg xmlns="http://www.w3.org/2000/svg" xmlns:xlink="http://www.w3.org/1999/xlink" viewBox="0 0 217.97 140.13"><defs><style>.cls-1{fill:#253855;}.cls-2{fill:#174e9f;}</style><clipPath id="clip-path"><path class="cls-1" d="M26.31,124s18.86,8.7,84.09,8.7c11.73,0,21.85-.18,30.59-.47,2.86,3.89,7.95,6.6,12,7.52,4.78,1.1,9.63.08,5.87-3.29a4.49,4.49,0,0,1-1.42-5q5.16-.31,9.4-.67a14.43,14.43,0,0,0,2.94,3.14c3.65,3,6.35,4,9.44,3.67s2.5-1.66-.84-3c-1.81-.72-2.41-2.87-2.59-4.68,11.93-1.36,15.88-2.7,15.88-2.7v-2.71S159.46,126,110.4,126s-84.09-4.9-84.09-4.9Z"/></clipPath></defs><g id="Layer_2" data-name="Layer 2"><g id="Logo_Assets" data-name="Logo Assets"><g id="Logo2"><g id="Mulholland-Logo2-Color"><g id="surfboard_-_oak" data-name="surfboard - oak"><path class="cls-1" d="M26.31,124s18.86,8.7,84.09,8.7c11.73,0,21.85-.18,30.59-.47,2.86,3.89,7.95,6.6,12,7.52,4.78,1.1,9.63.08,5.87-3.29a4.49,4.49,0,0,1-1.42-5q5.16-.31,9.4-.67a14.43,14.43,0,0,0,2.94,3.14c3.65,3,6.35,4,9.44,3.67s2.5-1.66-.84-3c-1.81-.72-2.41-2.87-2.59-4.68,11.93-1.36,15.88-2.7,15.88-2.7v-2.71S159.46,126,110.4,126s-84.09-4.9-84.09-4.9Z"/><path class="cls-1" d="M146.09,132.27c0,3.21,6.81,6.36,6.81,6.36a21.38,21.38,0,0,1-10.14-6.36Z"/><path class="cls-1" d="M176.43,136.58s-4.09-.33-8.3-6l2.27-.25S172.89,135,176.43,136.58Z"/></g><path class="cls-2" d="M41,114.6c-.5,1.88-2.12,2.81-4.89,2.81H29.76c-2,0-3-.56-3-1.7a4.51,4.51,0,0,1,.37-1.56l2.91-7.6-8.71,9.56a4.11,4.11,0,0,1-3.08,1.57,5.43,5.43,0,0,1-.67-.05c-1.34-.16-2-.82-2-2a3.92,3.92,0,0,1,.31-1.47L20.27,103,9.42,116.08a3.87,3.87,0,0,1-3.2,1.33H2.65l7.11-20.3H0l2.65-4.43H14.4c1.61,0,2.42.59,2.42,1.78a5.27,5.27,0,0,1-.33,1.65L12.71,107l7.56-8.56a12.77,12.77,0,0,1,2.21-2.15,6.16,6.16,0,0,1,3.32-.81A2.28,2.28,0,0,1,27,95.9a2.1,2.1,0,0,1,1,1.88,4.65,4.65,0,0,1-.38,1.74l-3.41,8.86,6.77-6.8a15.65,15.65,0,0,1,1.91-1.74,4.68,4.68,0,0,1,2.37-.46,2.31,2.31,0,0,1,1.3.46,2.22,2.22,0,0,1,1.06,2,4.81,4.81,0,0,1-.35,1.67l-4.2,11.09Z"/><path class="cls-2" d="M64.07,114.6a3.54,3.54,0,0,1-1.62,2.22,3.94,3.94,0,0,1-2.09.59H53q-2.58,0-2.58-1.65a4.58,4.58,0,0,1-3.71,1.65h-3.1a3.12,3.12,0,0,1-2.21-.73,2.37,2.37,0,0,1-.74-1.81,3.57,3.57,0,0,1,.25-1.3l2.95-8.11h6.38L47,114.6h3.57l3.27-9.14h6.31l-3.2,9.14Z"/><path class="cls-2" d="M77.42,114.6a3.5,3.5,0,0,1-2,2.29,5.47,5.47,0,0,1-2.37.52H66.26c-1.73,0-2.6-.59-2.6-1.77a3.29,3.29,0,0,1,.19-1l6.52-18.38H76.6L70,114.6Z"/><path class="cls-2" d="M101.15,114.6a3.64,3.64,0,0,1-2,2.29,5.17,5.17,0,0,1-2.3.52H89.41c-1.33,0-2-.48-2-1.44a4.76,4.76,0,0,1,.26-1.37L89,110.86l-6.66,5.48a3.89,3.89,0,0,1-2.6,1.07H76.07l7.52-21.23h6.33l-5.29,14.94L90,106.73A7.19,7.19,0,0,1,94.7,105a1.57,1.57,0,0,1,1.76,1.8,4.35,4.35,0,0,1-.32,1.49l-2.23,6.29Z"/><path class="cls-2" d="M130.89,105.46c-.47,1.88-1.88,2.81-4.22,2.81h-11a2.71,2.71,0,0,1,1,1.42,4.1,4.1,0,0,1,.3,1.78,6,6,0,0,1-2.58,4.61,9.85,9.85,0,0,1-5.8,1.62,10.37,10.37,0,0,1-6.38-1.64,4.6,4.6,0,0,1-2-3.88,5,5,0,0,1,.09-1,6.14,6.14,0,0,1,2.63-4.17,10.7,10.7,0,0,1,6.19-1.6Zm-19.16,2.81h-4l-1.58,4.5a2.11,2.11,0,0,0-.12.67c0,1,.93,1.51,2.81,1.51h.58Z"/><path class="cls-2" d="M135.31,114.6a3.5,3.5,0,0,1-2,2.29,5.47,5.47,0,0,1-2.37.52h-6.77c-1.73,0-2.6-.59-2.6-1.77a3.29,3.29,0,0,1,.19-1l6.52-18.38h6.23l-6.56,18.38Z"/><path class="cls-2" d="M148.6,114.6a3.55,3.55,0,0,1-2,2.29,5.48,5.48,0,0,1-2.38.52h-6.76q-2.61,0-2.61-1.77a3.33,3.33,0,0,1,.2-1l6.52-18.38h6.22l-6.56,18.38Z"/><path class="cls-2" d="M171,114.6c-.56,1.88-2,2.81-4.31,2.81H160c-1.9,0-2.85-.6-2.85-1.82a6,6,0,0,1-4.71,2.18,4.58,4.58,0,0,1-3.34-1.27,4.44,4.44,0,0,1-1.28-3.3,6.88,6.88,0,0,1,2.81-5.8,10.13,10.13,0,0,1,6.31-1.94h10l-3.31,9.14Zm-11.34-6.33h-3.88l-1.23,4.1a2.35,2.35,0,0,0-.11.7c0,1,1,1.53,3,1.53Z"/><path class="cls-2" d="M194.85,114.6a3.55,3.55,0,0,1-2,2.29,5.47,5.47,0,0,1-2.37.52h-7c-1.61,0-2.41-.52-2.41-1.58a3.9,3.9,0,0,1,.24-1.23l1.34-3.78-6.05,5.12a6.69,6.69,0,0,1-3.49,1.47h-3.24l4.2-12h6.35l-2,5.63,5.36-4.4a7,7,0,0,1,4.73-1.7,1.6,1.6,0,0,1,1.72,1.83,4.35,4.35,0,0,1-.28,1.45l-2.26,6.33Z"/><path class="cls-2" d="M218,114.6c-.59,1.88-2,2.81-4.31,2.81H207c-1.93,0-2.88-.6-2.85-1.82a6.44,6.44,0,0,1-5.18,2.26,4.92,4.92,0,0,1-3.45-1.19,4.27,4.27,0,0,1-1.37-3.34,6.89,6.89,0,0,1,3.1-6,11.49,11.49,0,0,1,6.69-1.88h3.66l3.29-9.28h6.4l-6.54,18.42Zm-11.38-6.33h-4.46l-1.34,3.78a3,3,0,0,0-.17,1c0,.79.49,1.29,1.49,1.5a14.93,14.93,0,0,0,2.25.1Z"/><g id="wave"><path class="cls-2" d="M190,29.75a39.91,39.91,0,0,0-1.9-6.08c-.41-1-.88-2-1.39-3l-.81-1.46-1-1.58a41,41,0,0,0-20.3-15.56A39.11,39.11,0,0,0,151.92,0c-1,0-2.07.06-3.08.13l-2.68.33c-.21,0-.42.06-.63.1L143.34,1q-.36.08-.72.18l-2.29.67-.61.2c-.66.25-1.21.5-1.83.74l-.26.11-.3.1-.08,0-.15.07-.6.27c-.4.18-.78.38-1.17.57a30.64,30.64,0,0,0-4.19,2.59,27.43,27.43,0,0,0-6.12,6.1,18.15,18.15,0,0,0-3.74,12.27,14.84,14.84,0,0,0,2.83,7.4,14,14,0,0,0,1.33,1.6l.5.52-.23-.64a18.14,18.14,0,0,1-.54-1.86,13.5,13.5,0,0,1,.11-6.8,16.65,16.65,0,0,1,5.81-8.35,24.48,24.48,0,0,1,5.55-3.34A31.53,31.53,0,0,1,140,12.27c.29-.08.57-.17.87-.23l.44-.11.11,0,0,0c.07,0-.41.14-.17.07l.28-.06c.56-.11,1.17-.24,1.74-.34a7.46,7.46,0,0,1,.95-.11c.38,0,.76,0,1.13-.08l1.54,0h.64l1.23.06c.22,0,.44,0,.65.06l1.56.2a24.61,24.61,0,0,1,7.2,2.39,26.47,26.47,0,0,1,10.94,11.13l.3.68.35.86c.23.59.42,1.2.61,1.82a24.67,24.67,0,0,1,.85,3.91,32.8,32.8,0,0,1,0,8.34A36.25,36.25,0,0,1,164.63,57c-3.48,5-7,8-12.28,12.05-1.54,1.18.63-.1,3.78,2.28a6.21,6.21,0,0,1,1.15,1.31,2.79,2.79,0,0,1-.61,3.59,11,11,0,0,1-3.12,2.16c-1.3.57-6.27,2.63-7.23,3.1-.45.21,3.43.4,5.22.4H158a28.39,28.39,0,0,0,4-.47c7.76-.88,15-8,20.13-15.21a47.91,47.91,0,0,0,8.82-23.93A40.51,40.51,0,0,0,190,29.75Z"/><path class="cls-2" d="M162.64,33a24,24,0,0,0-6-13,24.86,24.86,0,0,0-12.45-7.09,20.5,20.5,0,0,0-13.33,1.51,16,16,0,0,0-7.37,7,11.85,11.85,0,0,0-1.24,7.13A11.22,11.22,0,0,0,123.84,33a14.35,14.35,0,0,0,.94,1.31l0,.05a.64.64,0,0,0,.73.14.46.46,0,0,0,.22-.67,14.62,14.62,0,0,1-.72-1.37,9.8,9.8,0,0,1-.82-4,10.76,10.76,0,0,1,1.86-5.87,13.31,13.31,0,0,1,6.67-5.06,15.35,15.35,0,0,1,9.86-.14,18.59,18.59,0,0,1,8.73,6.22,16.4,16.4,0,0,1,2.35,4.63,21.29,21.29,0,0,1,1,5.33,21.86,21.86,0,0,1-2.39,10.74,28.72,28.72,0,0,1-7.55,8.88c-3.18,2.47-5.43,4.19-9.9,7.12-5.09,3.33-9.15,6.13-10.72,6.85-4,4.24,5.6,1.56,9.32,1.29a55.48,55.48,0,0,1,5.81.55l1.33-.64a49,49,0,0,0,11.91-8.84,39.38,39.38,0,0,0,8.28-12.35A28,28,0,0,0,162.64,33Z"/></g><g id="kayak"><path class="cls-1" d="M166.14,79.81a31.15,31.15,0,0,1-6.23.88c-2.42.12-5.15.26-8.13.44-1.44.1-2.95.19-4.51.27,6.51-2,10.25-4.46,10.88-7.27.4-1.77-.56-3.44-2.5-4.36a13,13,0,0,0-2.67-.84,3.51,3.51,0,0,0-3.49-2.56h0a3.31,3.31,0,0,0-3.13,1.74c-2.34-.15-5-.23-8.1-.23-6.51,0-12.36.35-12.42.35a1.18,1.18,0,0,0-1.16.85,2.8,2.8,0,0,1-.31.38c0-.08,0-.16,0-.24l.09-.37c.61-2.58-.3-7.15-1.08-10.06l-.06-.22c0-.21-.08-.43-.13-.65-1.42-7.05-5-8.77-6.77-9.18,0-.17-.07-.41-.11-.72a4.84,4.84,0,0,1,.07-1c.19-1.68.55-4.79-2.41-6.81a4.56,4.56,0,0,0-2.56-.73c-2.5,0-5.38,1.63-5.67,4.26-.24,2.18-.57,5.16,2.85,7.26a1.23,1.23,0,0,1,.77,1.16.56.56,0,0,1,0,.2,26.19,26.19,0,0,0-3.24,1.75l-.46.34c-1,.72-1.14.85-3.33,1a17.1,17.1,0,0,0-3.18.58,9,9,0,0,1-2.35.39,7.07,7.07,0,0,1-1-.08,1.34,1.34,0,0,1-.24-.18,2.67,2.67,0,0,0-1-.57,7.12,7.12,0,0,0-1.82-.31c-1.16,0-1.35.75-1.39,1v0l-1.62-.64c-3.66-1.44-1.56-5.23-14.72-10.4-4-1.58-5.38-1.6-7.14,2.88s-.76,5.39,3.27,7c13.17,5.17,14.21,1,17.86,2.39l3.92,1.54a1.18,1.18,0,0,0,.61.9,8.37,8.37,0,0,0,3.87.86l11.8,4.63c0,.3,0,.58.07.86A8.87,8.87,0,0,1,109,69a8.22,8.22,0,0,0-.19,1.49c-2.41-.52-5-1.17-7.46-1.81-5.66-1.46-11-2.83-15.13-2.83a64.55,64.55,0,0,0-10.63,1,63.54,63.54,0,0,1-10.56,1,34.53,34.53,0,0,1-5.2-.39,3.5,3.5,0,0,0-3.23-2.64,3.22,3.22,0,0,0-3.34,1.65H53a9.36,9.36,0,0,0-4.08.92,1.33,1.33,0,0,0-.72.88c-.08.3-.68,3,1.87,6.32C53,78.4,60,82.68,76.34,84.79l-2.22.09-9.62.4-8.14.37c-2.42.1-4.54.22-6.28.3s-3.11.17-4,.2l-1.44.08s.5.07,1.43.17,2.3.25,4,.4,3.86.33,6.28.49,5.17.34,8.16.46l4.66.2,5,.14c1.71.06,3.47.07,5.27.09s3.64,0,5.51,0l5.69,0c1.88,0,3.78,0,5.7-.09L84,88.87l-11.49.78c-1.38.09-2.47.19-3.22.24L68.14,90l1.14.11c.74.06,1.84.16,3.22.25s3.08.2,5,.28,4.12.19,6.51.23l3.72.08,4,0c2.73,0,5.61,0,8.59-.08l4.54-.13,1.55,0-5.26.42-5.09.42-3.93.34-2.53.22-.89.09s1.25.11,3.43.22c1.1,0,2.42.12,4,.16s3.24.09,5.11.09h2.93l3.13,0c2.15,0,4.41-.1,6.76-.17l3.56-.16c1.21-.06,2.43-.11,3.65-.2,2.46-.15,5-.32,7.45-.53l3.73-.33c1.24-.12,2.47-.26,3.69-.39l3.64-.4,3.54-.47c1.16-.15,2.31-.3,3.42-.46L150,89l3.09-.5c1-.17,2-.37,2.88-.54,1.84-.34,3.53-.68,5-1s3.54-.72,4.62-.94c3.5-.72,4.56-1.81,4.56-1.81a6.61,6.61,0,0,0,2.69-4.56,14.11,14.11,0,0,1-3.5,3.59,25.68,25.68,0,0,1-4.14,1.36c-.91.23-2.32.55-5,1-1.53.28-2.64.42-4.55.69s-3.82.46-5.95.67l-3.28.32-2.73.24,2.41-.34,3.94-.58c1.28-.19,2.5-.42,3.68-.62,2.35-.4,4.5-.8,6.41-1.16s4.5-1,4.87-1l.08,0a24,24,0,0,0,3.12-1.09c2.53-1.25,4-4.8,4-4.8A35.51,35.51,0,0,1,167.59,81,9.94,9.94,0,0,1,164,82.3c-1.11.23-2,.32-3.61.55-1.27.18-4.59.73-7.56,1.16-1.19.16-4.26.45-7,.66l-4.17.34-.46,0,1.25-.15,5-.62c.8-.1,1.58-.21,2.35-.33L152,83.6c3-.45,5.67-.89,8.06-1.28a31.66,31.66,0,0,0,6.78-1.71,19.24,19.24,0,0,0,2.44-1.37,15.42,15.42,0,0,0,3.4-2.83,25.71,25.71,0,0,1-2.39,1.51A22.24,22.24,0,0,1,166.14,79.81Zm-10.22-4.32a6.56,6.56,0,0,1-.66.67,15,15,0,0,1-3,1.94,35.58,35.58,0,0,1-5.14,2.05c-1.82.58-3.89,1.12-6.15,1.6l-2.1.12,1.23-.23c2.58-.5,4.92-1,7-1.66a35.4,35.4,0,0,0,5.15-2,14.77,14.77,0,0,0,3-1.89,7.58,7.58,0,0,0,.68-.65l.21-.24Zm-6.44-8.12h0a2.54,2.54,0,0,1,2.32,1.34c-1.24-.22-2.69-.39-4.35-.52A2.65,2.65,0,0,1,149.48,67.37Zm-2.74,2.09a7.16,7.16,0,0,0,2.84.71,9.39,9.39,0,0,0,2.45-.08,12.94,12.94,0,0,1,3.05.88,3.69,3.69,0,0,1,1.43,1.13c-2.74.93-14.66,4.51-37.8,5.82,1.74-.22,3.43-.49,5-.79a53.85,53.85,0,0,0,6.06-1.47,32,32,0,0,0,4.92-1.91,15.21,15.21,0,0,0,3.42-2.22,6.87,6.87,0,0,0,1.66-2c.05-.1.09-.2.13-.29C142.24,69.24,144.57,69.31,146.74,69.46Zm-21.93,1.11.63-.22.25-.06-.22.12c-.15.07-.34.2-.58.33l-.37.23-.41.27c-.14.08-.28.19-.43.29l-.44.31c-.59.42-1.17.86-1.6,1.18l-.73.55a2.28,2.28,0,0,1,.16-.19c.1-.12.25-.3.44-.5s.43-.42.69-.64a9.65,9.65,0,0,1,.85-.67A9.21,9.21,0,0,1,124,71,6.64,6.64,0,0,1,124.81,70.57Zm-14.55-4.35a47.77,47.77,0,0,0-.61-5.37q-.11-.52-.18-1a44.35,44.35,0,0,0,9.24-1.47,21.53,21.53,0,0,0,.64,5.46l0,0a14.22,14.22,0,0,1-1.07,1.28,21.53,21.53,0,0,1-5,3.83,22.54,22.54,0,0,1-2.58,1.29,23.54,23.54,0,0,0,2.7-1.05,21.9,21.9,0,0,0,5.45-3.45,9.45,9.45,0,0,0,.79-.76,7.66,7.66,0,0,1,.14,3.22c-.23,1.58-2,2.4-3.67,2.82-1.93,0-3.92-.11-5.47-.25l-.79-.15C109.74,69.71,110.44,68.19,110.26,66.22ZM93.18,56.89c-1-.29-1.06-.56-.45-.56a6.23,6.23,0,0,1,1.55.27c.5.15.77.71,1.32.78a8,8,0,0,0,1.15.08c1.93,0,3-.76,5.61-1,2.79-.22,2.81-.48,4.3-1.55a40.27,40.27,0,0,1,4.75-2.43c1.52-.67,3.1-2.4,4.71-2.4a2.19,2.19,0,0,1,1.23.38,4.09,4.09,0,0,0-3.52,1s1.92.86,2.2,2a1.46,1.46,0,0,0-.16-.19,4.89,4.89,0,0,0-.4-.39l-.21-.17-.22-.14a1.53,1.53,0,0,0-.21-.14l-.21-.1-.2-.1-.2-.07-.34-.11-.28,0-.23,0,.22.1.24.11a2.63,2.63,0,0,1,.3.18l.16.1.16.14.17.14.16.16.15.17.14.19a3.54,3.54,0,0,1,.26.41c.08.13.14.29.21.43s.11.29.15.43a.64.64,0,0,0,0,.07,3.68,3.68,0,0,1-1,.75,29.65,29.65,0,0,1-6.8,2.64l-.22,0a4.46,4.46,0,0,1-.51.07l-.53.05h-.53c-.18,0-.35,0-.52,0s-.32-.07-.47-.1-.28-.1-.41-.14-.23-.12-.33-.17a1.14,1.14,0,0,1-.23-.17l-.2-.16.15.21a1.24,1.24,0,0,0,.19.24,2.62,2.62,0,0,0,.29.27c.12.08.24.18.39.27l.39.2c-1.43.28-2.94.49-4.54.64h0l.28-.06.73-.18c.44-.11.81-.23,1.07-.31l.4-.11-.41.07c-.27,0-.64.14-1.09.2l-.74.11-.81.1c-.29,0-.58.05-.88.08s-.6,0-.9.05h-.91l-.87,0-.8-.07-.72-.1c-.22,0-.41-.08-.59-.11l-.12,0a1.31,1.31,0,0,1-.12-.33,2,2,0,0,1,0-.24.58.58,0,0,1,0-.23.55.55,0,0,1,.06-.22.84.84,0,0,1,.09-.19.62.62,0,0,1,.1-.16l.09-.11.08-.1-.11.07-.13.08a.71.71,0,0,0-.15.12.91.91,0,0,0-.17.17,1.3,1.3,0,0,0-.15.23.88.88,0,0,0-.12.28,0,0,0,0,0,0,0C94,57.75,94,57.12,93.18,56.89Zm15.74-15.78c2.34-.89,3.53.22,4.06,3.19l.33.12a4,4,0,0,1,.5.2l.41.19.3.18.26.15-.29-.09-.32-.12-.43-.13-.5-.15-.57-.13-.33-.07-.27,0-.44-.07h-.08l-.5,0c-.34,0-.69,0-1,0s-.66,0-1,.06a8.3,8.3,0,0,0-.91.13,5.46,5.46,0,0,0-.79.17c-.25.07-.47.11-.66.18l-.06,0c0-.31.06-.63.1-.94A3.72,3.72,0,0,1,108.92,41.11ZM106.61,45l.1,0c.2,0,.43,0,.67-.07a5,5,0,0,1,.79,0c.28,0,.58,0,.88,0s.62,0,.93.1a7.78,7.78,0,0,1,.94.18l.47.11.45.15c.3.08.59.21.86.31l.78.36c.24.13.47.24.67.37l.12.07c-.32,3.07-3,4.48-4.07,4.9a2.31,2.31,0,0,0-1.11-1.2C106.73,48.72,106.48,46.89,106.61,45Zm1.08,15.25.8-.17c.05.32.11.65.18,1,.15.74.25,1.48.33,2.2l-6-2.36A21.44,21.44,0,0,0,107.69,60.21ZM71,46.61c.37.12.91.29,1.54.51l2.16.77,1.21.45,1.24.48,1.24.5,1.2.49,2.1.9c.62.27,1.12.51,1.48.67l.55.27-.59-.18L81.61,51c-.63-.22-1.37-.48-2.15-.77l-1.21-.45L77,49.26l-1.24-.5-1.19-.49c-.78-.32-1.49-.63-2.11-.9s-1.12-.51-1.47-.68l-.56-.26Zm10.26,9.64c-.37-.13-.91-.29-1.54-.51L77.58,55l-1.21-.45L75.13,54l-1.24-.5-1.2-.49-2.1-.9c-.62-.27-1.12-.52-1.48-.68l-.55-.26.58.18c.38.12.91.29,1.54.51s1.38.48,2.16.77l1.21.45,1.25.48,1.24.5,1.19.49,2.11.9,1.47.67.56.27Zm5.5-1C85,54.6,83.61,54,82.6,53.57L81,52.9l1.61.59c1,.38,2.48.9,4.23,1.57l4.25,1.6h0l1.64.5a.57.57,0,0,1,.09.63L91,57h0Zm13.88,5.55.84,0H102l4.5,1.79,2.58,1c0,.13,0,.26,0,.39-.89-.33-1.81-.69-2.77-1.06ZM65.07,69.23c8.23,0,13.22-2.08,21.19-2.08s21.34,5.44,29.7,5.64c-.49,0-1,.09-1.54.12l-1.22,0c-.44,0-.86,0-1.29,0a45.39,45.39,0,0,1-5.49-.64,69.71,69.71,0,0,1-10.11-2.43l-1.83-.63-1.41-.49-1.24-.45.27.23a7.48,7.48,0,0,0,.81.56c.35.22.81.46,1.34.72s1.14.5,1.82.75a71,71,0,0,0,10.15,2.84,49.21,49.21,0,0,0,5.62.78c.45,0,.92,0,1.34.06s.87,0,1.29,0c.84,0,1.63-.09,2.37-.19a12.2,12.2,0,0,0,3.52-.91,5.59,5.59,0,0,0,.55-.28l.21-.13-.57.53a.5.5,0,0,0,.36.85.52.52,0,0,0,.35-.14s.21-.21.54-.51a.91.91,0,0,0,.87.15c1-.36,2.59-1,2.76-1.87a1.28,1.28,0,0,0-.09-.72,4.77,4.77,0,0,1,.52-.22.5.5,0,0,0,.3-.64.53.53,0,0,0-.38-.32,2.49,2.49,0,0,0,.13-.24s5.8-.35,12.34-.35h1.62l-.14.25a7.28,7.28,0,0,1-1.79,1.81,16.78,16.78,0,0,1-3.48,1.89,37,37,0,0,1-4.91,1.57c-1.84.45-3.86.84-6,1.16-.54.09-1.09.15-1.64.22s-1.11.15-1.68.2l-1.72.19-1.76.15c-2.37.2-4.83.33-7.32.43l-1.88.06-1.9,0c-1.26,0-2.53,0-3.8,0s-2.55,0-3.81,0-2.53,0-3.77-.07c-2.5-.1-5-.17-7.33-.36-1.19-.07-2.35-.2-3.49-.29s-2.25-.24-3.32-.4c-2.16-.3-4.18-.65-6-1.09a31.64,31.64,0,0,1-4.91-1.55,14.4,14.4,0,0,1-3.41-2,7.59,7.59,0,0,1-1-1,4.23,4.23,0,0,1-.56-.93,2.33,2.33,0,0,1-.11-.31Zm-8.51-3.36a2.54,2.54,0,0,1,2.18,1.46l-1.5-.27c-1-.19-1.94-.36-2.84-.46A2.57,2.57,0,0,1,56.56,65.87Zm-3.52,2,.54,0a7.21,7.21,0,0,0,2.78.88,7.51,7.51,0,0,0,2.83,0,36.23,36.23,0,0,0,4.83.46,2.46,2.46,0,0,0,.09.34,4.72,4.72,0,0,0,.48,1,6.43,6.43,0,0,0,1,1.17A13.91,13.91,0,0,0,68.92,74a29.89,29.89,0,0,0,4.93,1.9,54.91,54.91,0,0,0,5.91,1.36c-22.61-2.55-30.23-8.65-30.23-8.65A7.87,7.87,0,0,1,53,67.85ZM81.19,84.2A91.55,91.55,0,0,1,63.51,81c-1.26-.37-2.45-.8-3.57-1.23s-2.16-.92-3.1-1.43a19.71,19.71,0,0,1-4.53-3.17A12.46,12.46,0,0,1,51,73.61a8.21,8.21,0,0,1-.78-1.3,4,4,0,0,1-.22-.5,3,3,0,0,1-.14-.37l-.1-.3.1.3c0,.1.09.22.15.37a5.06,5.06,0,0,0,.23.49A9.56,9.56,0,0,0,51,73.58a12.84,12.84,0,0,0,1.37,1.52,19.2,19.2,0,0,0,4.55,3.07,39.77,39.77,0,0,0,6.67,2.56,73.46,73.46,0,0,0,8.26,1.85c3,.51,6.11.89,9.38,1.19,2.38.22,4.83.38,7.32.5l-3.7.17-.55,0C83.25,84.38,82.21,84.3,81.19,84.2Z"/><path class="cls-1" d="M115.13,66.45l-.62.55-.62.51-.6.46-.55.39c-.33.26-.63.45-.83.59l-.32.23L112,69c.22-.11.55-.25.91-.47.19-.1.39-.21.59-.34l.64-.43.66-.49.64-.55c.21-.2.42-.4.61-.6s.38-.4.55-.61.33-.4.48-.6.27-.39.38-.57a8.32,8.32,0,0,0,.5-.91,2.89,2.89,0,0,0,.14-.36s-.07.12-.21.33-.35.48-.61.81c-.13.16-.27.34-.43.52s-.33.36-.5.55-.38.38-.56.58Z"/><path class="cls-1" d="M110.82,67.36c0,.25,0,.48,0,.7,0,.42-.09.78-.14,1s-.09.4-.09.4a3.79,3.79,0,0,0,.19-.37,6.6,6.6,0,0,0,.32-1,6.46,6.46,0,0,0,.13-.71,5.07,5.07,0,0,0,.07-.8,6.17,6.17,0,0,0,0-.86,8.72,8.72,0,0,0-.08-.88c0-.29-.09-.58-.13-.87l-.15-.83c-.1-.53-.2-1-.3-1.46-.19-.86-.36-1.42-.36-1.42s0,.59.08,1.46c0,.44.08,1,.15,1.49,0,.27.06.55.1.84l.12.85c0,.29.07.57.09.85s0,.56,0,.83S110.83,67.12,110.82,67.36Z"/></g></g></g></g></g></svg>